# xmcd
#
# Track frame offsets: 
#        150
#        25116
#        49710
#        62243
#        78658
#        106544
#        128117
#        163332
#        189542
#        221195
#        250822
#        267017
#
# Disc length: 4059 seconds
#
# Revision: 0
# Processed by: cddbd v1.5.2PL0 Copyright (c) Steve Scherf et al.
# Submitted via: ExactAudioCopy v0.95b4
#
DISCID=a60fd90c
DTITLE=Danny Gatton - Hot Rod Guitar: The Danny Gatton Anthology CD2
DYEAR=1900
DGENRE=Crossover
TTITLE0=Funhouse
TTITLE1=So Good
TTITLE2=Sun Medley
TTITLE3=Cruisin' Deuce
TTITLE4=Broadway
TTITLE5=Gearheads
TTITLE6=Kindred Spirits
TTITLE7=Poinciana
TTITLE8=Red Label
TTITLE9=Gold Rush
TTITLE10=Busboy
TTITLE11=Linus and Lucy/Orange Blossom Medley (Live)
EXTD=
EXTT0=
EXTT1=
EXTT2=
EXTT3=
EXTT4=
EXTT5=
EXTT6=
EXTT7=
EXTT8=
EXTT9=
EXTT10=
EXTT11=
PLAYORDER=
